<?xml version="1.0" encoding="UTF-8"?>
<svg id="Layer_1" data-name="Layer 1" xmlns="http://www.w3.org/2000/svg" viewBox="0 0 462 224">
  <defs>
    <style>
      .cls-1 {
        fill: #89000f;
      }

      .cls-1, .cls-2, .cls-3, .cls-4, .cls-5, .cls-6, .cls-7, .cls-8, .cls-9, .cls-10 {
        fill-rule: evenodd;
      }

      .cls-2 {
        fill: #006096;
      }

      .cls-3 {
        fill: #fff;
      }

      .cls-4 {
        fill: #e0e0e0;
      }

      .cls-5 {
        fill: #001f66;
      }

      .cls-7 {
        fill: #d9d9d9;
      }

      .cls-8 {
        fill: #0080c8;
      }

      .cls-9 {
        fill: #bb000f;
      }

      .cls-10 {
        fill: #adadad;
      }
    </style>
  </defs>
  <path class="cls-4" d="M109.5,169c-30.05,0-54.5-24.67-54.5-55s24.45-55,54.5-55,54.5,24.67,54.5,55-24.45,55-54.5,55ZM109.5,62c-28.4,0-51.5,23.33-51.5,52s23.1,52,51.5,52,51.5-23.33,51.5-52-23.1-52-51.5-52Z"/>
  <path class="cls-7" d="M108.58,103.53l36.42-27.53-26.26,37.45,25.43,35.51-35.77-25.24-34.03,26.28,24.15-35.92-26.52-34.98,36.58,24.42h0Z"/>
  <path class="cls-10" d="M100.51,104.13l9.56-59.13,8.95,59.13,55.98,10.05-56.49,9.05-8.44,55.77-9.56-55.77-56.51-8.54,56.51-10.55h0Z"/>
  <path class="cls-3" d="M109.86,49l.14,63-8-7.71,7.86-55.29Z"/>
  <path class="cls-3" d="M44,114.59l63-2.59-7.4,9-55.6-6.41Z"/>
  <path class="cls-3" d="M110.47,179l-1.47-64,8,7.64-6.53,56.36Z"/>
  <path class="cls-3" d="M174,113.82l-63,.18,7.7-8,55.3,7.82Z"/>
  <path class="cls-6" d="M256,50.01l-22.24,41.01c-2.14,3.95-4.71,6.93-7.73,8.95-3.01,2.03-6.28,3.03-9.82,3.03-2.74,0-5.57-.59-8.51-1.78l2.91-9.1c2.09.64,3.83.96,5.23.96,1.49,0,2.83-.36,4.03-1.07,1.19-.71,2.29-1.84,3.29-3.37l.45-.59-20.6-38.05h12.91l13.88,27.83,14.33-27.83h11.87Z"/>
  <path class="cls-6" d="M309,50v52h-11.86v-42.19h-23.28v42.19h-11.86v-52h47Z"/>
  <path class="cls-6" d="M376.93,91.9c-4.71,3.9-11.49,6.07-20.32,6.51v5.59h-11.15v-5.67c-8.88-.49-15.68-2.68-20.39-6.58-4.71-3.9-7.07-9.21-7.07-15.93s2.36-12.08,7.07-15.93c4.71-3.85,11.51-6.05,20.39-6.58v-5.3h11.15v5.22c8.83.49,15.6,2.7,20.32,6.62,4.71,3.92,7.07,9.25,7.07,15.97s-2.36,12.18-7.07,16.08ZM345.47,89.06v-26.42c-5.34.49-9.3,1.8-11.86,3.94-2.57,2.14-3.85,5.22-3.85,9.24,0,7.75,5.24,12.17,15.71,13.25h0ZM368.44,85.05c2.59-2.18,3.89-5.29,3.89-9.31,0-7.85-5.24-12.21-15.71-13.1v26.42c5.28-.49,9.23-1.83,11.82-4.01h0Z"/>
  <path class="cls-6" d="M422.06,52.49c4.03,2.31,7.19,5.52,9.49,9.62,2.3,4.1,3.45,8.74,3.45,13.9s-1.15,9.81-3.45,13.9c-2.29,4.1-5.46,7.31-9.49,9.62-4.03,2.31-8.59,3.47-13.67,3.47-4.54,0-8.63-.8-12.27-2.39-3.64-1.59-6.68-3.9-9.12-6.94l7.55-7.16c3.61,4.13,8.04,6.19,13.26,6.19,3.76,0,6.95-1.12,9.57-3.36,2.61-2.24,4.31-5.25,5.09-9.02h-20.82v-9.25h20.67c-.83-3.58-2.54-6.44-5.13-8.58s-5.71-3.21-9.38-3.21c-5.23,0-9.65,2.06-13.26,6.19l-7.55-7.16c2.44-3.03,5.48-5.35,9.12-6.94,3.64-1.59,7.73-2.39,12.27-2.39,5.08,0,9.64,1.16,13.67,3.47h0v.02Z"/>
  <path class="cls-6" d="M457.42,119h-249.85c-.87,0-1.58-.67-1.58-1.5s.7-1.5,1.58-1.5h249.85c.87,0,1.58.67,1.58,1.5s-.7,1.5-1.58,1.5Z"/>
  <path class="cls-6" d="M215.65,131.53c.75.36,1.33.86,1.74,1.51.41.65.61,1.42.61,2.31s-.21,1.65-.61,2.31c-.4.66-.99,1.16-1.74,1.51-.76.35-1.64.52-2.66.52h-2.32v3.31h-2.67v-12h4.99c1.02,0,1.91.18,2.66.53h0ZM214.68,136.88c.42-.36.62-.87.62-1.54s-.21-1.19-.62-1.55c-.42-.36-1.03-.54-1.83-.54h-2.17v4.16h2.17c.8,0,1.41-.18,1.83-.54h0Z"/>
  <path class="cls-6" d="M227.93,139.2h-6.46c.12.54.39.97.83,1.29.44.32.97.47,1.62.47.44,0,.84-.07,1.18-.2.34-.14.66-.35.96-.64l1.32,1.46c-.81.94-1.98,1.42-3.52,1.42-.96,0-1.81-.19-2.55-.58-.74-.39-1.31-.92-1.71-1.6-.4-.68-.6-1.46-.6-2.32s.2-1.62.6-2.32c.4-.69.94-1.23,1.63-1.61.7-.39,1.47-.58,2.33-.58s1.59.18,2.27.55c.67.37,1.21.89,1.59,1.59.38.69.58,1.49.58,2.4,0,.03-.01.26-.05.68h-.02ZM222.13,136.4c-.38.32-.61.77-.7,1.33h4.21c-.09-.55-.32-.99-.7-1.33-.38-.33-.85-.49-1.4-.49s-1.03.16-1.41.49h0Z"/>
  <path class="cls-6" d="M243,134v9h-13v-9h2.45v6.86h2.84v-6.86h2.45v6.86h2.8v-6.86h2.45Z"/>
  <path class="cls-6" d="M253.93,139.2h-6.46c.12.54.39.97.83,1.29.44.32.97.47,1.62.47.44,0,.84-.07,1.18-.2.34-.14.66-.35.96-.64l1.32,1.46c-.81.94-1.98,1.42-3.52,1.42-.96,0-1.81-.19-2.55-.58-.74-.39-1.31-.92-1.71-1.6-.4-.68-.6-1.46-.6-2.32s.2-1.62.6-2.32c.4-.69.94-1.23,1.63-1.61.7-.39,1.47-.58,2.33-.58s1.59.18,2.27.55c.67.37,1.21.89,1.59,1.59.38.69.58,1.49.58,2.4,0,.03-.01.26-.05.68h-.02ZM248.13,136.4c-.38.32-.61.77-.7,1.33h4.21c-.09-.55-.32-.99-.7-1.33-.38-.33-.85-.49-1.4-.49s-1.03.16-1.41.49h0Z"/>
  <path class="cls-6" d="M256,134h2.56v3.51h3.87v-3.51h2.57v9h-2.57v-3.36h-3.87v3.36h-2.56v-9Z"/>
  <path class="cls-6" d="M267,134h2.49v5.35l4.21-5.35h2.3v9h-2.49v-5.35l-4.19,5.35h-2.32v-9Z"/>
  <path class="cls-6" d="M285.98,134v9h-2.13v-2.58h-1.76l-1.56,2.58h-2.54l1.88-2.94c-.58-.24-1.01-.6-1.31-1.06-.3-.46-.45-1.02-.45-1.68,0-1.06.35-1.88,1.05-2.45.7-.57,1.66-.86,2.89-.86h3.95-.02ZM280.94,136.43c-.26.2-.39.52-.39.97s.13.77.38.98c.25.21.63.31,1.14.31h1.79v-2.56h-1.76c-.51,0-.89.1-1.16.3h0Z"/>
  <path class="cls-6" d="M383.75,134.56c.7.37,1.25.9,1.65,1.57.4.68.6,1.46.6,2.36s-.2,1.68-.6,2.36c-.4.68-.95,1.2-1.65,1.57-.7.37-1.48.56-2.33.56-1.17,0-2.09-.35-2.77-1.05v4.07h-2.66v-11.87h2.54v1.01c.66-.76,1.62-1.14,2.89-1.14.85,0,1.63.19,2.33.56h0ZM382.64,140.26c.44-.44.65-1.03.65-1.76s-.22-1.32-.65-1.76c-.44-.44-.99-.65-1.68-.65s-1.24.22-1.68.65c-.44.44-.65,1.03-.65,1.76s.22,1.32.65,1.76c.44.44,1,.65,1.68.65s1.24-.22,1.68-.65Z"/>
  <path class="cls-6" d="M330.04,131.75c.92.51,1.65,1.23,2.17,2.14.52.91.79,1.94.79,3.1s-.27,2.18-.79,3.1c-.52.91-1.25,1.62-2.17,2.14-.92.51-1.96.77-3.13.77-1.04,0-1.98-.18-2.81-.53-.83-.35-1.53-.87-2.09-1.54l1.73-1.59c.83.92,1.84,1.37,3.04,1.37.86,0,1.6-.25,2.19-.75.6-.5.99-1.17,1.17-2h-4.77v-2.06h4.73c-.19-.79-.58-1.43-1.18-1.91-.59-.48-1.31-.71-2.15-.71-1.2,0-2.21.46-3.04,1.38l-1.73-1.59c.56-.68,1.26-1.19,2.09-1.54.83-.35,1.77-.53,2.81-.53,1.16,0,2.21.26,3.13.77v-.02h.01Z"/>
  <path class="cls-6" d="M338.77,139.58h-1.29v3.42h-2.48v-9h2.48v3.5h1.34l2.33-3.5h2.64l-2.99,4.32,3.2,4.68h-2.94l-2.3-3.42h0Z"/>
  <path class="cls-6" d="M346.42,142.41c-.76-.39-1.35-.92-1.78-1.6-.43-.68-.64-1.46-.64-2.32s.21-1.64.64-2.32c.43-.68,1.02-1.22,1.78-1.6.76-.39,1.61-.58,2.57-.58s1.77.19,2.47.58c.71.39,1.22.93,1.54,1.65l-2.01,1.06c-.46-.8-1.14-1.2-2.01-1.2-.68,0-1.23.22-1.68.65-.44.43-.66,1.02-.66,1.77s.22,1.34.66,1.78c.44.43,1.01.65,1.68.65.89,0,1.56-.4,2.01-1.21l2.01,1.07c-.32.69-.83,1.23-1.54,1.63-.71.39-1.53.58-2.47.58s-1.81-.19-2.57-.58h0Z"/>
  <path class="cls-6" d="M363,134v9h-2.33v-6.86h-3.35v6.86h-2.32v-9h8Z"/>
  <path class="cls-6" d="M373.93,139.2h-6.46c.12.54.39.97.83,1.29.44.32.97.47,1.62.47.44,0,.84-.07,1.18-.2.34-.14.66-.35.96-.64l1.32,1.46c-.81.94-1.98,1.42-3.52,1.42-.96,0-1.81-.19-2.55-.58-.74-.39-1.31-.92-1.71-1.6-.4-.68-.6-1.46-.6-2.32s.2-1.62.6-2.32c.4-.69.94-1.23,1.63-1.61.7-.39,1.47-.58,2.33-.58s1.59.18,2.27.55c.67.37,1.21.89,1.59,1.59.38.69.58,1.49.58,2.4,0,.03-.01.26-.05.68h-.02ZM368.13,136.4c-.38.32-.61.77-.7,1.33h4.21c-.09-.55-.32-.99-.7-1.33-.38-.33-.85-.49-1.4-.49s-1.03.16-1.41.49h0Z"/>
  <path class="cls-6" d="M394,136.14h-2.81v6.86h-2.39v-6.86h-2.81v-2.14h7.99v2.14h.01Z"/>
  <path class="cls-6" d="M396,134h2.49v5.35l4.21-5.35h2.3v9h-2.49v-5.35l-4.19,5.35h-2.32v-9Z"/>
  <path class="cls-6" d="M413.58,139.06c.28.34.42.73.42,1.2,0,.55-.18,1.03-.55,1.44-.37.42-.88.73-1.52.96-.65.23-1.37.34-2.18.34-.67,0-1.32-.07-1.96-.21-.65-.14-1.24-.35-1.79-.63l.67-1.76c.9.44,1.88.66,2.97.66.58,0,1.03-.09,1.37-.27.34-.18.5-.43.5-.75,0-.28-.12-.49-.35-.64s-.57-.22-1.02-.22h-1.74v-1.56h1.52c.43,0,.76-.07.99-.21.23-.14.35-.34.35-.61s-.15-.5-.44-.64c-.29-.15-.7-.23-1.24-.23-.82,0-1.72.2-2.69.6l-.6-1.74c1.18-.52,2.33-.79,3.45-.79.77,0,1.46.09,2.06.29.61.19,1.08.48,1.43.85.35.37.52.81.52,1.3,0,.41-.12.78-.36,1.1-.24.33-.57.59-.99.78.51.16.9.41,1.18.74v.02-.02Z"/>
  <path class="cls-6" d="M422.82,134.96c.79.64,1.18,1.62,1.18,2.92v4.99h-2.57v-1.09c-.51.81-1.48,1.22-2.89,1.22-.73,0-1.36-.11-1.89-.34-.54-.23-.94-.54-1.23-.94-.29-.4-.42-.85-.42-1.37,0-.81.33-1.45,1-1.92.66-.47,1.69-.7,3.07-.7h2.19c0-.55-.18-.98-.54-1.27-.36-.3-.91-.45-1.64-.45-.51,0-1,.07-1.49.22-.48.15-.9.35-1.24.6l-.98-1.77c.51-.34,1.14-.6,1.86-.78s1.47-.28,2.23-.28c1.47,0,2.6.33,3.38.97h-.02ZM420.47,140.99c.37-.2.62-.5.78-.89v-.89h-1.88c-1.13,0-1.69.34-1.69,1.02,0,.32.14.58.41.77.28.19.65.28,1.14.28s.89-.1,1.25-.3h-.01Z"/>
  <path class="cls-6" d="M217.99,157v11h-2.52v-8.92h-4.95v8.92h-2.52v-11h10-.01Z"/>
  <path class="cls-6" d="M227.98,159.56c.63.37,1.13.9,1.48,1.57.35.67.54,1.46.54,2.36s-.18,1.68-.54,2.36c-.36.68-.85,1.2-1.48,1.57-.63.37-1.33.56-2.1.56-1.06,0-1.88-.35-2.49-1.05v4.07h-2.39v-11.87h2.29v1.01c.6-.76,1.46-1.14,2.6-1.14.77,0,1.46.19,2.1.56h0ZM226.98,165.26c.4-.44.59-1.03.59-1.76s-.2-1.32-.59-1.76c-.4-.44-.9-.65-1.51-.65s-1.12.22-1.51.65c-.4.44-.59,1.03-.59,1.76s.2,1.32.59,1.76c.4.44.89.65,1.51.65s1.12-.22,1.51-.65Z"/>
  <path class="cls-6" d="M233.42,167.42c-.76-.39-1.35-.92-1.78-1.6-.43-.68-.64-1.46-.64-2.33s.21-1.64.64-2.33c.43-.68,1.02-1.22,1.78-1.6.76-.39,1.62-.58,2.58-.58s1.82.19,2.57.58c.76.39,1.35.92,1.78,1.6.43.68.64,1.46.64,2.33s-.21,1.64-.64,2.33c-.43.68-1.02,1.22-1.78,1.6-.75.39-1.61.58-2.57.58s-1.82-.19-2.58-.58ZM237.67,165.27c.44-.44.65-1.03.65-1.76s-.22-1.33-.65-1.76c-.44-.44-.99-.66-1.66-.66s-1.23.22-1.68.66c-.44.44-.66,1.03-.66,1.76s.22,1.33.66,1.76c.44.44,1,.66,1.68.66s1.23-.22,1.66-.66Z"/>
  <path class="cls-6" d="M252,165.88v4.12h-2.15v-1.98h-6.85v-9.02h2.3v6.88h3.23v-6.88h2.31v6.88h1.16Z"/>
  <path class="cls-6" d="M261.93,164.2h-6.46c.12.54.39.97.83,1.29.44.32.97.47,1.62.47.44,0,.84-.07,1.18-.2.34-.14.66-.35.96-.64l1.32,1.46c-.81.94-1.98,1.42-3.52,1.42-.96,0-1.81-.19-2.55-.58-.74-.39-1.31-.92-1.71-1.6-.4-.68-.6-1.46-.6-2.32s.2-1.62.6-2.32c.4-.69.94-1.23,1.63-1.61.7-.39,1.47-.58,2.33-.58s1.59.18,2.27.55c.67.37,1.21.89,1.59,1.59.38.69.58,1.49.58,2.4,0,.03-.01.26-.05.68h-.02ZM256.13,161.39c-.38.33-.61.77-.7,1.33h4.21c-.09-.56-.32-1-.7-1.33-.38-.33-.85-.49-1.4-.49s-1.03.16-1.41.49h0Z"/>
  <path class="cls-6" d="M266.15,167.41c-.68-.39-1.2-.92-1.58-1.6-.38-.68-.57-1.46-.57-2.32s.19-1.64.57-2.32c.38-.68.91-1.22,1.58-1.6.68-.39,1.44-.58,2.29-.58s1.57.19,2.19.58c.63.39,1.09.93,1.37,1.65l-1.79,1.06c-.41-.8-1.01-1.2-1.79-1.2-.6,0-1.1.22-1.49.65-.39.43-.59,1.02-.59,1.77s.2,1.34.59,1.78c.39.43.89.65,1.49.65.79,0,1.39-.4,1.79-1.21l1.79,1.07c-.28.69-.74,1.23-1.37,1.63-.63.39-1.36.58-2.19.58s-1.61-.19-2.29-.58h0Z"/>
  <path class="cls-6" d="M275.42,167.41c-.76-.39-1.35-.92-1.78-1.6-.43-.68-.64-1.46-.64-2.32s.21-1.64.64-2.32c.43-.68,1.02-1.22,1.78-1.6.76-.39,1.61-.58,2.57-.58s1.77.19,2.47.58c.71.39,1.22.93,1.54,1.65l-2.01,1.06c-.46-.8-1.14-1.2-2.01-1.2-.68,0-1.23.22-1.68.65-.44.43-.66,1.02-.66,1.77s.22,1.34.66,1.78c.44.43,1.01.65,1.68.65.89,0,1.56-.4,2.01-1.21l2.01,1.07c-.32.69-.83,1.23-1.54,1.63-.71.39-1.53.58-2.47.58s-1.81-.19-2.57-.58h0Z"/>
  <path class="cls-6" d="M290.48,162.66c.61.51.92,1.24.92,2.2s-.35,1.77-1.03,2.32c-.69.54-1.66.82-2.93.82h-4.44v-8.99h2.62v2.87h2.17c1.18.01,2.08.27,2.69.79h0ZM288.36,165.83c.27-.22.41-.56.41-1s-.13-.75-.39-.95c-.26-.2-.66-.31-1.18-.32h-1.57v2.59h1.57c.51.01.9-.1,1.17-.32h-.01ZM292.38,159h2.62v8.97h-2.62v-8.97Z"/>
  <path class="cls-6" d="M330.04,156.75c.92.51,1.65,1.23,2.17,2.14.52.91.79,1.94.79,3.1s-.27,2.18-.79,3.1c-.52.91-1.25,1.62-2.17,2.14-.92.51-1.96.77-3.13.77-1.04,0-1.98-.18-2.81-.53-.83-.35-1.53-.87-2.09-1.54l1.73-1.59c.83.92,1.84,1.37,3.04,1.37.86,0,1.6-.25,2.19-.75.6-.5.99-1.17,1.17-2h-4.77v-2.06h4.73c-.19-.79-.58-1.43-1.18-1.91-.59-.48-1.31-.71-2.15-.71-1.2,0-2.21.46-3.04,1.38l-1.73-1.59c.56-.68,1.26-1.19,2.09-1.54.83-.35,1.77-.53,2.81-.53,1.16,0,2.21.26,3.13.77v-.02h.01Z"/>
  <path class="cls-6" d="M345.62,166.71c-.92.78-2.23,1.22-3.94,1.34v2.95h-2.36v-2.95c-1.71-.12-3.02-.56-3.94-1.32-.92-.76-1.38-1.82-1.38-3.18s.45-2.37,1.36-3.11c.91-.73,2.23-1.16,3.96-1.28v-3.16h2.36v3.16c1.71.12,3.02.55,3.94,1.3.92.75,1.38,1.77,1.38,3.09s-.46,2.39-1.38,3.17h0ZM337.16,165.33c.45.41,1.17.68,2.15.79v-5.01c-.98.09-1.69.35-2.15.75-.45.4-.67.97-.67,1.71s.23,1.36.67,1.78h0v-.02ZM343.83,165.33c.45-.41.69-1.01.69-1.78s-.23-1.31-.69-1.71c-.45-.4-1.18-.65-2.15-.75v5.01c.98-.11,1.7-.37,2.15-.79h0v.02Z"/>
  <path class="cls-6" d="M358.72,166.71c-.85.78-2.06,1.22-3.63,1.34v2.95h-2.18v-2.95c-1.58-.12-2.79-.56-3.64-1.32-.85-.76-1.27-1.82-1.27-3.18s.42-2.37,1.26-3.11c.84-.73,2.06-1.16,3.65-1.28v-3.16h2.18v3.16c1.58.12,2.79.55,3.64,1.3.85.75,1.27,1.77,1.27,3.09s-.43,2.39-1.27,3.17h-.01ZM350.92,165.33c.42.41,1.08.68,1.98.79v-5.01c-.9.09-1.56.35-1.98.75-.42.4-.62.97-.62,1.71s.21,1.36.62,1.78h0v-.02ZM357.08,165.33c.42-.41.64-1.01.64-1.78s-.21-1.31-.64-1.71c-.42-.4-1.09-.65-1.99-.75v5.01c.9-.11,1.57-.37,1.99-.79h0v.02Z"/>
  <path class="cls-6" d="M370.93,164.2h-7.17c.13.54.43.97.92,1.29.48.32,1.08.47,1.8.47.49,0,.93-.07,1.32-.2.38-.14.74-.35,1.07-.64l1.46,1.46c-.9.94-2.2,1.42-3.92,1.42-1.07,0-2.01-.19-2.84-.58-.82-.39-1.45-.92-1.9-1.6-.45-.68-.67-1.46-.67-2.32s.22-1.62.66-2.32c.44-.69,1.04-1.23,1.82-1.61.77-.39,1.63-.58,2.59-.58s1.77.18,2.52.55c.75.37,1.34.89,1.77,1.59.43.69.65,1.49.65,2.4,0,.03-.02.26-.05.68h-.02ZM364.51,161.39c-.43.33-.68.77-.78,1.33h4.67c-.1-.56-.35-1-.78-1.33-.43-.33-.94-.49-1.55-.49s-1.15.16-1.57.49h0Z"/>
  <path class="cls-6" d="M376.19,164.58h-1.43v3.42h-2.76v-9h2.76v3.5h1.49l2.58-3.5h2.94l-3.33,4.32,3.56,4.68h-3.26l-2.55-3.42h0Z"/>
  <path class="cls-6" d="M390,161.14h-2.81v6.86h-2.39v-6.86h-2.81v-2.14h7.99v2.14h.01Z"/>
  <path class="cls-6" d="M391,159h2.49v5.35l4.21-5.35h2.3v9h-2.49v-5.35l-4.19,5.35h-2.32v-9Z"/>
  <path class="cls-6" d="M411,165.44c0,.82-.29,1.44-.87,1.89-.58.45-1.44.67-2.59.67h-4.54v-9h4.35c1.07,0,1.9.2,2.49.61.6.4.9.98.9,1.71,0,.45-.11.84-.32,1.18-.22.34-.53.61-.92.79,1,.36,1.5,1.07,1.5,2.14h0ZM405.27,162.7h1.86c.86,0,1.3-.32,1.3-.97s-.43-.95-1.3-.95h-1.86v1.92ZM408.7,165.25c0-.35-.11-.6-.32-.76s-.54-.24-.99-.24h-2.12v1.99h2.07c.91,0,1.36-.33,1.36-.99h0Z"/>
  <path class="cls-6" d="M413,159h2.56v3.51h3.87v-3.51h2.57v9h-2.57v-3.36h-3.87v3.36h-2.56v-9Z"/>
  <path class="cls-6" d="M425.42,167.42c-.76-.39-1.35-.92-1.78-1.6-.43-.68-.64-1.46-.64-2.33s.21-1.64.64-2.33c.43-.68,1.02-1.22,1.78-1.6.76-.39,1.62-.58,2.58-.58s1.82.19,2.57.58c.76.39,1.35.92,1.78,1.6.43.68.64,1.46.64,2.33s-.21,1.64-.64,2.33c-.43.68-1.02,1.22-1.78,1.6-.75.39-1.61.58-2.57.58s-1.82-.19-2.58-.58ZM429.67,165.27c.44-.44.65-1.03.65-1.76s-.22-1.33-.65-1.76c-.44-.44-.99-.66-1.66-.66s-1.23.22-1.68.66c-.44.44-.66,1.03-.66,1.76s.22,1.33.66,1.76c.44.44,1,.66,1.68.66s1.23-.22,1.66-.66Z"/>
  <path class="cls-6" d="M436.42,167.41c-.76-.39-1.35-.92-1.78-1.6-.43-.68-.64-1.46-.64-2.32s.21-1.64.64-2.32c.43-.68,1.02-1.22,1.78-1.6.76-.39,1.61-.58,2.57-.58s1.77.19,2.47.58c.71.39,1.22.93,1.54,1.65l-2.01,1.06c-.46-.8-1.14-1.2-2.01-1.2-.68,0-1.23.22-1.68.65-.44.43-.66,1.02-.66,1.77s.22,1.34.66,1.78c.44.43,1.01.65,1.68.65.89,0,1.56-.4,2.01-1.21l2.01,1.07c-.32.69-.83,1.23-1.54,1.63-.71.39-1.53.58-2.47.58s-1.81-.19-2.57-.58h0Z"/>
  <path class="cls-6" d="M452,161.14h-3.16v6.86h-2.69v-6.86h-3.16v-2.14h8.99v2.14h.01Z"/>
  <path class="cls-6" d="M460.12,162.66c.59.51.88,1.25.88,2.2s-.33,1.76-.98,2.31c-.66.55-1.58.83-2.76.83h-4.26v-9h2.44v2.88h2.14c1.1.01,1.95.28,2.53.79h0ZM458.12,165.83c.25-.22.38-.56.38-1s-.12-.75-.37-.95c-.25-.2-.61-.31-1.1-.32h-1.59v2.59h1.59c.47.01.83-.1,1.09-.32h0Z"/>
  <path class="cls-6" d="M309.5,171c-.83,0-1.5-.6-1.5-1.32v-41.35c0-.74.68-1.32,1.5-1.32s1.5.6,1.5,1.32v41.35c0,.74-.68,1.32-1.5,1.32Z"/>
  <path class="cls-6" d="M87.54,3.3C50.98,10.6,13.09,46.63,3.76,82.85c-18.49,71.79,33.73,137.7,103.07,140.09,37.46,1.29,71.21-16.26,92.18-44.17l-24.81-.86h0c-17.22,16.71-40.89,26.65-66.71,25.76h0c-50.67-1.74-90.28-44.55-88.19-95.45C21.32,58.38,63.23,19.03,112.92,20.3c13.57.35,26.36,3.64,37.78,9.26l7.62-17.7C137.58,1.89,113.22-1.83,87.54,3.3Z"/>
  <path class="cls-6" d="M197,39.29l-31.41-33.29-14.59,34,46-.71Z"/>
  <path class="cls-10" d="M110.45,45h-.01c-.79,0-1.44-.55-1.44-1.21l.1-8.59c0-.66.66-1.19,1.45-1.19h.01c.79,0,1.44.55,1.44,1.21l-.1,8.59c0,.66-.66,1.19-1.45,1.19Z"/>
  <path class="cls-10" d="M75.33,54c-.23,0-.46-.14-.58-.39l-3.67-7.46c-.18-.37-.07-.84.25-1.05.32-.21.73-.08.91.29l3.67,7.46c.18.37.07.84-.25,1.05-.11.07-.21.1-.33.1Z"/>
  <path class="cls-10" d="M50.22,79c-.13,0-.27-.03-.39-.1l-7.44-4.43c-.37-.22-.5-.7-.28-1.08.22-.38.69-.5,1.06-.28l7.44,4.43c.37.22.5.7.28,1.08-.14.25-.4.39-.67.39Z"/>
  <path class="cls-10" d="M40.8,115h0l-8.59-.06c-.66,0-1.19-.44-1.19-.98s.54-.98,1.21-.96l8.59.06c.66,0,1.19.44,1.19.98s-.54.96-1.2.96Z"/>
  <path class="cls-10" d="M42.68,152c-.24,0-.47-.12-.59-.34-.18-.32-.07-.73.26-.91l6.64-3.67c.33-.18.75-.07.93.25.18.32.07.73-.26.91l-6.64,3.67c-.11.06-.22.09-.34.09Z"/>
  <path class="cls-10" d="M71.65,181c-.11,0-.23-.03-.33-.1-.31-.22-.42-.69-.23-1.07l3.69-7.45c.18-.37.58-.49.89-.28.31.22.42.69.23,1.07l-3.69,7.45c-.12.25-.34.38-.56.38Z"/>
  <path class="cls-10" d="M109.97,192h0c-.53,0-.96-.55-.96-1.21l.06-8.59c0-.66.44-1.19.97-1.19h0c.53,0,.96.55.96,1.21l-.06,8.6c0,.66-.44,1.19-.97,1.19Z"/>
  <path class="cls-10" d="M149.2,181c-.28,0-.56-.14-.69-.39l-4.4-7.46c-.21-.37-.08-.84.3-1.05.39-.21.88-.08,1.09.29l4.4,7.46c.21.37.09.84-.3,1.05-.13.07-.26.1-.4.1Z"/>
  <path class="cls-10" d="M177.22,152c-.13,0-.27-.03-.39-.1l-7.44-4.43c-.37-.22-.5-.7-.28-1.08.22-.38.69-.49,1.07-.28l7.44,4.43c.37.22.5.7.28,1.08-.15.25-.4.39-.67.39Z"/>
  <path class="cls-10" d="M186.91,115h-.01l-7.81-.06c-.6,0-1.08-.44-1.08-.98s.52-.93,1.1-.96l7.81.06c.6,0,1.08.44,1.08.98s-.49.96-1.09.96Z"/>
  <path class="cls-10" d="M169.77,79c-.27,0-.53-.12-.67-.34-.21-.32-.08-.73.29-.91l7.47-3.66c.37-.19.84-.07,1.05.25.2.32.08.73-.29.91l-7.47,3.66c-.12.06-.25.09-.38.09Z"/>
  <path class="cls-10" d="M144.65,54c-.11,0-.23-.03-.33-.1-.31-.22-.42-.69-.23-1.07l3.69-7.45c.18-.37.58-.5.89-.28.31.22.42.69.23,1.07l-3.69,7.45c-.12.25-.34.38-.56.38Z"/>
  <path class="cls-3" d="M108.53,105.3c4.3-1.29,8.12,1.71,9.21,5.69,1.1,4.08-1.41,8.67-5.33,9.74-3.91,1.08-7.71-1.18-9.04-5.31-1.24-3.87.74-8.78,5.17-10.11h0ZM116.93,112.7c-.15-3.74-3.15-6.66-6.7-6.51-3.55.16-6.31,3.32-6.17,7.07.15,3.76,3.14,6.66,6.7,6.51,3.56-.16,6.31-3.33,6.17-7.07Z"/>
  <path class="cls-9" d="M103.07,107.01l-51.07,68.99,53.94-47.29,14.06-13.25-16.92-8.46h0Z"/>
  <path class="cls-1" d="M111.75,112.01l-59.75,63.99,53.94-46.81,14.06-13.11-8.24-4.08h0Z"/>
  <path class="cls-8" d="M169,50l-66,57.56,16.91,8.44,49.09-65.99h0Z"/>
  <path class="cls-2" d="M169,50l-57,61.89,8.19,4.11,48.8-66h0Z"/>
  <path class="cls-3" d="M116.7,119.16c-3.21,3.62-8.59,3.81-12.02.41-3.42-3.4-3.6-9.09-.39-12.72,3.21-3.63,8.59-3.81,12.02-.41,3.42,3.4,3.6,9.09.39,12.72Z"/>
  <path class="cls-5" d="M115.24,117.79c-2.46,2.82-6.57,2.97-9.19.32-2.62-2.65-2.75-7.08-.29-9.89,2.46-2.82,6.57-2.97,9.19-.32,2.62,2.65,2.75,7.08.29,9.89Z"/>
</svg>